<?xml version="1.0" standalone="no"?>
<!DOCTYPE svg PUBLIC "-//W3C//DTD SVG 1.0//EN" "http://www.w3.org/TR/2001/REC-SVG-20010904/DTD/svg10.dtd">
<svg xmlns="http://www.w3.org/2000/svg" xmlns:xlink="http://www.w3.org/1999/xlink" id="body_1" width="176" height="169">

<g transform="matrix(0.25 0 0 0.25037038 0 0)">
	<g transform="matrix(0.13333333 0 -0 -0.13339922 0 675)">
	</g>
    <path transform="matrix(0.13333333 0 -0 -0.13339922 0 675)"  d="M1775 4368C 1654 4297 1490 4202 1410 4156C 759 3779 575 3671 573 3664C 572 3659 630 3621 703 3579C 1099 3350 1170 3306 1163 3300C 1159 3295 1070 3243 966 3184L966 3184L777 3076L784 2251C 788 1797 793 1424 794 1422C 796 1421 860 1456 936 1501C 1013 1546 1100 1596 1130 1612C 1160 1629 1226 1666 1275 1695C 1369 1750 1817 2008 2324 2299L2324 2299L2622 2470L2664 2447C 2727 2411 3228 2123 3375 2038C 3578 1920 3971 1695 4013 1671C 4066 1641 4163 1586 4315 1497C 4387 1455 4448 1425 4453 1429C 4457 1433 4459 1807 4458 2259L4458 2259L4455 3083L4271 3189C 4169 3247 4086 3300 4086 3305C 4087 3311 4216 3390 4374 3481C 4532 3572 4665 3651 4670 3656C 4676 3662 4619 3701 4517 3760C 4428 3811 4292 3890 4215 3935C 4138 3980 3999 4061 3905 4115C 3812 4169 3643 4267 3530 4333C 3417 4398 3307 4462 3284 4475L3284 4475L3244 4499L3174 4458C 2957 4332 2766 4221 2699 4183L2699 4183L2623 4140L2541 4185C 2496 4210 2442 4241 2422 4254C 2378 4281 2044 4473 2015 4487C 1998 4495 1957 4474 1775 4368zM1995 3793C 1992 3781 1978 3765 1962 3757C 1947 3750 1774 3650 1577 3537C 1381 3423 1214 3330 1208 3330C 1194 3330 631 3653 630 3661C 630 3667 704 3711 1025 3896C 1113 3947 1367 4094 1590 4223L1590 4223L1995 4459L1998 4137C 1999 3960 1998 3805 1995 3793zM3474 4329C 3579 4268 3764 4160 3885 4090C 4006 4020 4217 3897 4354 3818C 4492 3738 4605 3669 4607 3664C 4609 3659 4537 3613 4448 3561C 4358 3509 4232 3436 4166 3398C 4093 3354 4041 3330 4029 3333C 4019 3336 3840 3436 3631 3557L3631 3557L3251 3775L3248 4095C 3246 4271 3247 4423 3249 4433C 3254 4457 3250 4459 3474 4329zM2345 4261C 2472 4188 2576 4126 2578 4122C 2579 4118 2557 4101 2528 4084C 2324 3966 2071 3821 2053 3811L2053 3811L2030 3799L2030 4121L2030 4442L2073 4417C 2096 4403 2219 4333 2345 4261zM3219 4131C 3221 3961 3219 3817 3216 3812C 3212 3805 3167 3826 3101 3863C 2729 4076 2660 4116 2661 4120C 2661 4125 3199 4437 3210 4439C 3213 4440 3217 4301 3219 4131zM2691 4061C 2726 4040 2852 3968 2970 3900C 3088 3832 3193 3770 3203 3762C 3219 3748 3220 3713 3220 3301L3220 3301L3220 2854L3168 2824C 3139 2807 3023 2740 2910 2675C 2797 2610 2686 2546 2663 2533L2663 2533L2622 2509L2393 2641C 2268 2714 2134 2792 2095 2815L2095 2815L2025 2857L2028 3306C 2030 3553 2034 3758 2038 3762C 2042 3765 2119 3811 2210 3863C 2301 3915 2429 3989 2495 4028C 2561 4067 2618 4099 2621 4099C 2625 4100 2657 4083 2691 4061zM1991 3305C 1990 3074 1987 2884 1985 2882C 1983 2879 1907 2920 1818 2972C 1728 3024 1570 3116 1465 3175C 1361 3235 1269 3289 1262 3295C 1251 3305 1285 3328 1427 3410C 1525 3467 1688 3562 1790 3621C 1892 3681 1979 3728 1984 3727C 1988 3725 1992 3536 1991 3305zM3555 3563C 3979 3318 3983 3316 3986 3305C 3988 3300 3950 3273 3902 3246C 3854 3218 3723 3143 3610 3077C 3497 3012 3380 2945 3350 2928C 3320 2912 3291 2894 3286 2889C 3251 2856 3250 2872 3250 3306C 3250 3708 3251 3732 3268 3725C 3277 3722 3407 3649 3555 3563zM1385 3185C 1476 3133 1625 3047 1718 2995C 1810 2942 1892 2895 1900 2890C 1919 2879 2356 2624 2482 2551C 2536 2520 2580 2493 2580 2490C 2580 2487 2499 2439 2400 2382L2400 2382L2221 2279L2103 2348C 2038 2385 1911 2459 1820 2512C 1729 2564 1585 2649 1498 2699C 1412 2749 1339 2790 1335 2790C 1332 2790 1323 2796 1315 2803C 1308 2809 1200 2873 1076 2945C 952 3016 853 3077 856 3080C 869 3093 1196 3279 1207 3279C 1214 3280 1294 3237 1385 3185zM4213 3184C 4305 3131 4383 3084 4385 3079C 4388 3075 4326 3035 4248 2989C 4169 2944 4053 2877 3990 2840C 3803 2730 3531 2573 3268 2421L3268 2421L3021 2279L2903 2348C 2838 2386 2757 2432 2723 2451C 2688 2470 2660 2487 2660 2490C 2660 2493 2688 2510 2723 2529C 2791 2566 3014 2695 3235 2825C 3312 2870 3454 2952 3550 3007C 3646 3062 3792 3146 3875 3194C 3957 3241 4029 3280 4034 3280C 4040 3280 4120 3237 4213 3184zM947 2982C 1012 2944 1126 2878 1200 2835C 1274 2793 1398 2721 1475 2676C 1552 2631 1742 2520 1898 2430C 2053 2341 2180 2264 2180 2261C 2180 2257 2165 2246 2148 2235C 2083 2197 1823 2046 1725 1991C 1670 1959 1535 1882 1425 1818C 1315 1754 1191 1683 1150 1659C 1109 1636 1019 1584 950 1544C 881 1504 824 1473 824 1473C 817 1481 813 3050 820 3050C 824 3050 881 3019 947 2982zM4428 2270C 4425 1841 4420 1487 4417 1484C 4412 1479 4226 1580 4090 1660C 3999 1714 3438 2039 3208 2171C 3127 2217 3060 2257 3060 2260C 3061 2263 3147 2315 3253 2376C 3358 2437 3618 2588 3830 2710C 4042 2833 4260 2959 4314 2992C 4369 3024 4418 3050 4423 3050C 4429 3050 4431 2755 4428 2270z" stroke="none" fill="#000000" fill-rule="nonzero" />
	<g transform="matrix(0.13333333 0 -0 -0.13339922 0 675)">
	</g>
    <path transform="matrix(0.13333333 0 -0 -0.13339922 0 675)"  d="M1209 809C 1230 789 1232 781 1228 688C 1226 614 1221 587 1210 580C 1199 573 1205 570 1233 570C 1268 570 1270 571 1256 586C 1239 602 1237 640 1248 704L1248 704L1255 742L1295 661C 1316 616 1338 580 1342 580C 1346 580 1368 616 1390 660C 1412 704 1435 740 1440 740C 1455 740 1453 597 1438 582C 1429 573 1436 570 1471 570C 1506 571 1511 573 1498 581C 1483 590 1480 607 1480 698C 1480 769 1484 810 1492 818C 1501 827 1499 830 1482 830C 1464 830 1450 811 1408 725C 1379 667 1353 620 1349 620C 1346 620 1322 667 1295 725C 1250 825 1246 830 1217 830L1217 830L1186 830L1209 809z" stroke="none" fill="#000000" fill-rule="nonzero" />
	<g transform="matrix(0.13333333 0 -0 -0.13339922 0 675)">
	</g>
    <path transform="matrix(0.13333333 0 -0 -0.13339922 0 675)"  d="M1643 816C 1657 805 1660 786 1660 698C 1660 631 1656 590 1648 582C 1639 573 1655 570 1722 570C 1788 570 1812 574 1825 586C 1846 607 1838 615 1811 600C 1799 594 1768 590 1742 592L1742 592L1695 595L1695 640C 1695 685 1695 685 1733 688C 1754 690 1778 686 1786 679C 1798 670 1800 673 1800 701C 1800 727 1797 731 1788 722C 1781 715 1757 710 1733 710C 1691 710 1690 711 1690 744C 1690 800 1698 810 1743 810C 1767 810 1791 803 1802 793C 1819 778 1820 778 1820 803L1820 803L1820 830L1723 830C 1639 829 1628 827 1643 816z" stroke="none" fill="#000000" fill-rule="nonzero" />
	<g transform="matrix(0.13333333 0 -0 -0.13339922 0 675)">
	</g>
    <path transform="matrix(0.13333333 0 -0 -0.13339922 0 675)"  d="M2055 820C 2038 815 2011 797 1995 780C 1969 752 1965 742 1965 689C 1965 634 1968 626 1996 601C 2039 562 2102 554 2166 577C 2215 595 2215 596 2220 648L2220 648L2226 700L2192 700C 2162 700 2160 699 2174 684C 2215 643 2176 580 2111 580C 2008 580 1954 720 2032 785C 2076 822 2138 820 2185 779L2185 779L2220 748L2220 774C 2220 788 2212 804 2202 809C 2174 824 2089 830 2055 820z" stroke="none" fill="#000000" fill-rule="nonzero" />
	<g transform="matrix(0.13333333 0 -0 -0.13339922 0 675)">
	</g>
    <path transform="matrix(0.13333333 0 -0 -0.13339922 0 675)"  d="M2773 817C 2787 805 2790 786 2790 697C 2790 607 2787 589 2773 581C 2759 573 2768 571 2810 570C 2862 570 2863 571 2842 586C 2825 598 2820 611 2820 646C 2820 686 2822 690 2844 690C 2861 690 2876 679 2891 658C 2931 599 2963 570 2988 570L2988 570L3013 570L2989 589C 2976 599 2951 627 2934 651L2934 651L2902 695L2926 723C 2955 757 2956 771 2931 801C 2915 821 2902 825 2834 828C 2765 830 2757 829 2773 817zM2900 790C 2911 779 2920 764 2920 756C 2920 730 2889 709 2856 712C 2829 715 2825 719 2822 748C 2820 767 2821 788 2824 796C 2832 817 2877 813 2900 790z" stroke="none" fill="#000000" fill-rule="nonzero" />
	<g transform="matrix(0.13333333 0 -0 -0.13339922 0 675)">
	</g>
    <path transform="matrix(0.13333333 0 -0 -0.13339922 0 675)"  d="M3146 812C 3158 803 3184 771 3204 741C 3233 698 3240 678 3240 639C 3240 604 3235 588 3223 581C 3209 573 3216 571 3255 571C 3294 571 3301 573 3288 581C 3274 588 3270 604 3270 641C 3270 684 3276 701 3311 751C 3334 783 3357 810 3361 810C 3366 810 3370 815 3370 820C 3370 826 3354 830 3334 830C 3303 830 3299 828 3310 815C 3320 803 3318 793 3296 760C 3282 738 3268 720 3265 720C 3252 720 3202 803 3207 816C 3211 827 3202 830 3169 830C 3126 830 3125 829 3146 812z" stroke="none" fill="#000000" fill-rule="nonzero" />
	<g transform="matrix(0.13333333 0 -0 -0.13339922 0 675)">
	</g>
    <path transform="matrix(0.13333333 0 -0 -0.13339922 0 675)"  d="M3490 804C 3490 781 3491 780 3506 794C 3514 803 3537 810 3556 810L3556 810L3590 810L3590 700C 3590 607 3587 590 3573 581C 3559 573 3567 571 3609 570C 3661 570 3662 570 3641 588C 3621 604 3619 613 3622 705L3622 705L3625 805L3665 808C 3694 811 3708 807 3717 794C 3729 778 3730 779 3730 803L3730 803L3730 830L3610 830L3490 830L3490 804z" stroke="none" fill="#000000" fill-rule="nonzero" />
	<g transform="matrix(0.13333333 0 -0 -0.13339922 0 675)">
	</g>
    <path transform="matrix(0.13333333 0 -0 -0.13339922 0 675)"  d="M3863 816C 3877 805 3880 786 3880 697C 3880 607 3877 589 3863 581C 3850 573 3869 571 3936 570C 3993 570 4030 574 4038 582C 4057 601 4052 612 4031 600C 4020 595 3989 590 3961 590L3961 590L3910 590L3910 640L3910 690L3955 690C 3980 690 4000 686 4000 680C 4000 675 4005 670 4010 670C 4016 670 4020 684 4020 702C 4020 727 4017 731 4008 722C 4001 715 3976 710 3952 710L3952 710L3909 710L3912 758L3915 805L3963 808C 3998 810 4012 807 4016 796C 4024 775 4040 786 4040 811C 4040 828 4032 830 3943 830C 3859 829 3848 827 3863 816z" stroke="none" fill="#000000" fill-rule="nonzero" />
	<g transform="matrix(0.13333333 0 -0 -0.13339922 0 675)">
	</g>
    <path transform="matrix(0.13333333 0 -0 -0.13339922 0 675)"  d="M2441 713C 2412 653 2381 597 2373 588C 2358 571 2359 570 2396 571C 2417 571 2429 574 2423 577C 2406 583 2407 605 2425 640C 2439 667 2445 670 2489 670C 2537 670 2538 669 2554 628C 2568 595 2569 585 2558 579C 2550 574 2564 570 2594 570C 2641 570 2642 570 2622 588C 2605 603 2553 707 2521 793C 2515 808 2507 820 2502 820C 2497 820 2469 772 2441 713zM2513 735C 2522 715 2530 697 2530 695C 2530 692 2512 690 2490 690C 2468 690 2450 692 2450 695C 2450 706 2484 770 2490 770C 2493 770 2504 754 2513 735z" stroke="none" fill="#000000" fill-rule="nonzero" />
</g>
</svg>