<?xml version="1.0" standalone="no"?>
<!DOCTYPE svg PUBLIC "-//W3C//DTD SVG 20010904//EN"
 "http://www.w3.org/TR/2001/REC-SVG-20010904/DTD/svg10.dtd">
<svg version="1.0" xmlns="http://www.w3.org/2000/svg"
 width="528.000000pt" height="506.000000pt" viewBox="0 0 528.000000 506.000000"
 preserveAspectRatio="xMidYMid meet">

<g transform="translate(0.000000,506.000000) scale(0.100000,-0.100000)"
fill="#000000" stroke="none">
<path d="M1775 4368 c-121 -71 -285 -166 -365 -212 -651 -377 -835 -485 -837
-492 -1 -5 57 -43 130 -85 396 -229 467 -273 460 -279 -4 -5 -93 -57 -197
-116 l-189 -108 7 -825 c4 -454 9 -827 10 -829 2 -1 66 34 142 79 77 45 164
95 194 111 30 17 96 54 145 83 94 55 542 313 1049 604 l298 171 42 -23 c63
-36 564 -324 711 -409 203 -118 596 -343 638 -367 53 -30 150 -85 302 -174 72
-42 133 -72 138 -68 4 4 6 378 5 830 l-3 824 -184 106 c-102 58 -185 111 -185
116 1 6 130 85 288 176 158 91 291 170 296 175 6 6 -51 45 -153 104 -89 51
-225 130 -302 175 -77 45 -216 126 -310 180 -93 54 -262 152 -375 218 -113 65
-223 129 -246 142 l-40 24 -70 -41 c-217 -126 -408 -237 -475 -275 l-76 -43
-82 45 c-45 25 -99 56 -119 69 -44 27 -378 219 -407 233 -17 8 -58 -13 -240
-119z m220 -575 c-3 -12 -17 -28 -33 -36 -15 -7 -188 -107 -385 -220 -196
-114 -363 -207 -369 -207 -14 0 -577 323 -578 331 0 6 74 50 395 235 88 51
342 198 565 327 l405 236 3 -322 c1 -177 0 -332 -3 -344z m1479 536 c105 -61
290 -169 411 -239 121 -70 332 -193 469 -272 138 -80 251 -149 253 -154 2 -5
-70 -51 -159 -103 -90 -52 -216 -125 -282 -163 -73 -44 -125 -68 -137 -65 -10
3 -189 103 -398 224 l-380 218 -3 320 c-2 176 -1 328 1 338 5 24 1 26 225
-104z m-1129 -68 c127 -73 231 -135 233 -139 1 -4 -21 -21 -50 -38 -204 -118
-457 -263 -475 -273 l-23 -12 0 322 0 321 43 -25 c23 -14 146 -84 272 -156z
m874 -130 c2 -170 0 -314 -3 -319 -4 -7 -49 14 -115 51 -372 213 -441 253
-440 257 0 5 538 317 549 319 3 1 7 -138 9 -308z m-528 -70 c35 -21 161 -93
279 -161 118 -68 223 -130 233 -138 16 -14 17 -49 17 -461 l0 -447 -52 -30
c-29 -17 -145 -84 -258 -149 -113 -65 -224 -129 -247 -142 l-41 -24 -229 132
c-125 73 -259 151 -298 174 l-70 42 3 449 c2 247 6 452 10 456 4 3 81 49 172
101 91 52 219 126 285 165 66 39 123 71 126 71 4 1 36 -16 70 -38z m-700 -756
c-1 -231 -4 -421 -6 -423 -2 -3 -78 38 -167 90 -90 52 -248 144 -353 203 -104
60 -196 114 -203 120 -11 10 23 33 165 115 98 57 261 152 363 211 102 60 189
107 194 106 4 -2 8 -191 7 -422z m1564 258 c424 -245 428 -247 431 -258 2 -5
-36 -32 -84 -59 -48 -28 -179 -103 -292 -169 -113 -65 -230 -132 -260 -149
-30 -16 -59 -34 -64 -39 -35 -33 -36 -17 -36 417 0 402 1 426 18 419 9 -3 139
-76 287 -162z m-2170 -378 c91 -52 240 -138 333 -190 92 -53 174 -100 182
-105 19 -11 456 -266 582 -339 54 -31 98 -58 98 -61 0 -3 -81 -51 -180 -108
l-179 -103 -118 69 c-65 37 -192 111 -283 164 -91 52 -235 137 -322 187 -86
50 -159 91 -163 91 -3 0 -12 6 -20 13 -7 6 -115 70 -239 142 -124 71 -223 132
-220 135 13 13 340 199 351 199 7 1 87 -42 178 -94z m2828 -1 c92 -53 170
-100 172 -105 3 -4 -59 -44 -137 -90 -79 -45 -195 -112 -258 -149 -187 -110
-459 -267 -722 -419 l-247 -142 -118 69 c-65 38 -146 84 -180 103 -35 19 -63
36 -63 39 0 3 28 20 63 39 68 37 291 166 512 296 77 45 219 127 315 182 96 55
242 139 325 187 82 47 154 86 159 86 6 0 86 -43 179 -96z m-3266 -202 c65 -38
179 -104 253 -147 74 -42 198 -114 275 -159 77 -45 267 -156 423 -246 155 -89
282 -166 282 -169 0 -4 -15 -15 -32 -26 -65 -38 -325 -189 -423 -244 -55 -32
-190 -109 -300 -173 -110 -64 -234 -135 -275 -159 -41 -23 -131 -75 -200 -115
-69 -40 -126 -71 -126 -71 -7 8 -11 1577 -4 1577 4 0 61 -31 127 -68z m3481
-712 c-3 -429 -8 -783 -11 -786 -5 -5 -191 96 -327 176 -91 54 -652 379 -882
511 -81 46 -148 86 -148 89 1 3 87 55 193 116 105 61 365 212 577 334 212 123
430 249 484 282 55 32 104 58 109 58 6 0 8 -295 5 -780z"/>
<path d="M1209 809 c21 -20 23 -28 19 -121 -2 -74 -7 -101 -18 -108 -11 -7 -5
-10 23 -10 35 0 37 1 23 16 -17 16 -19 54 -8 118 l7 38 40 -81 c21 -45 43 -81
47 -81 4 0 26 36 48 80 22 44 45 80 50 80 15 0 13 -143 -2 -158 -9 -9 -2 -12
33 -12 35 1 40 3 27 11 -15 9 -18 26 -18 117 0 71 4 112 12 120 9 9 7 12 -10
12 -18 0 -32 -19 -74 -105 -29 -58 -55 -105 -59 -105 -3 0 -27 47 -54 105 -45
100 -49 105 -78 105 l-31 0 23 -21z"/>
<path d="M1643 816 c14 -11 17 -30 17 -118 0 -67 -4 -108 -12 -116 -9 -9 7
-12 74 -12 66 0 90 4 103 16 21 21 13 29 -14 14 -12 -6 -43 -10 -69 -8 l-47 3
0 45 c0 45 0 45 38 48 21 2 45 -2 53 -9 12 -9 14 -6 14 22 0 26 -3 30 -12 21
-7 -7 -31 -12 -55 -12 -42 0 -43 1 -43 34 0 56 8 66 53 66 24 0 48 -7 59 -17
17 -15 18 -15 18 10 l0 27 -97 0 c-84 -1 -95 -3 -80 -14z"/>
<path d="M2055 820 c-17 -5 -44 -23 -60 -40 -26 -28 -30 -38 -30 -91 0 -55 3
-63 31 -88 43 -39 106 -47 170 -24 49 18 49 19 54 71 l6 52 -34 0 c-30 0 -32
-1 -18 -16 41 -41 2 -104 -63 -104 -103 0 -157 140 -79 205 44 37 106 35 153
-6 l35 -31 0 26 c0 14 -8 30 -18 35 -28 15 -113 21 -147 11z"/>
<path d="M2773 817 c14 -12 17 -31 17 -120 0 -90 -3 -108 -17 -116 -14 -8 -5
-10 37 -11 52 0 53 1 32 16 -17 12 -22 25 -22 60 0 40 2 44 24 44 17 0 32 -11
47 -32 40 -59 72 -88 97 -88 l25 0 -24 19 c-13 10 -38 38 -55 62 l-32 44 24
28 c29 34 30 48 5 78 -16 20 -29 24 -97 27 -69 2 -77 1 -61 -11z m127 -27 c11
-11 20 -26 20 -34 0 -26 -31 -47 -64 -44 -27 3 -31 7 -34 36 -2 19 -1 40 2 48
8 21 53 17 76 -6z"/>
<path d="M3146 812 c12 -9 38 -41 58 -71 29 -43 36 -63 36 -102 0 -35 -5 -51
-17 -58 -14 -8 -7 -10 32 -10 39 0 46 2 33 10 -14 7 -18 23 -18 60 0 43 6 60
41 110 23 32 46 59 50 59 5 0 9 5 9 10 0 6 -16 10 -36 10 -31 0 -35 -2 -24
-15 10 -12 8 -22 -14 -55 -14 -22 -28 -40 -31 -40 -13 0 -63 83 -58 96 4 11
-5 14 -38 14 -43 0 -44 -1 -23 -18z"/>
<path d="M3490 804 c0 -23 1 -24 16 -10 8 9 31 16 50 16 l34 0 0 -110 c0 -93
-3 -110 -17 -119 -14 -8 -6 -10 36 -11 52 0 53 0 32 18 -20 16 -22 25 -19 117
l3 100 40 3 c29 3 43 -1 52 -14 12 -16 13 -15 13 9 l0 27 -120 0 -120 0 0 -26z"/>
<path d="M3863 816 c14 -11 17 -30 17 -119 0 -90 -3 -108 -17 -116 -13 -8 6
-10 73 -11 57 0 94 4 102 12 19 19 14 30 -7 18 -11 -5 -42 -10 -70 -10 l-51 0
0 50 0 50 45 0 c25 0 45 -4 45 -10 0 -5 5 -10 10 -10 6 0 10 14 10 32 0 25 -3
29 -12 20 -7 -7 -32 -12 -56 -12 l-43 0 3 48 3 47 48 3 c35 2 49 -1 53 -12 8
-21 24 -10 24 15 0 17 -8 19 -97 19 -84 -1 -95 -3 -80 -14z"/>
<path d="M2441 713 c-29 -60 -60 -116 -68 -125 -15 -17 -14 -18 23 -17 21 0
33 3 27 6 -17 6 -16 28 2 63 14 27 20 30 64 30 48 0 49 -1 65 -42 14 -33 15
-43 4 -49 -8 -5 6 -9 36 -9 47 0 48 0 28 18 -17 15 -69 119 -101 205 -6 15
-14 27 -19 27 -5 0 -33 -48 -61 -107z m72 22 c9 -20 17 -38 17 -40 0 -3 -18
-5 -40 -5 -22 0 -40 2 -40 5 0 11 34 75 40 75 3 0 14 -16 23 -35z"/>
</g>
</svg>
